<?xml version="1.0" encoding="UTF-8"?>
<svg viewBox="0 0 295.55 384.73" xmlns="http://www.w3.org/2000/svg">
 <g stroke="#000">
  <path d="m208.46 358.62c0-5.749-0.959-32.58-0.959-47.911 0-15.332-9.103-13.896-16.29-15.812-7.185-1.917-43.439-3.455-43.439-3.455s-36.252 1.538-43.439 3.455c-7.187 1.916-16.29 0.479-16.29 15.812 0 15.331-0.959 42.162-0.959 47.911 0 5.75-2.874 11.021 4.792 14.853s30.024 9.457 55.896 9.457c25.873 0 48.23-5.625 55.897-9.457 7.666-3.832 4.791-9.103 4.791-14.853z" stroke-width=".601"/>
  <path d="m176.89 295.19c-1.707-3.832-1.164-14.445-1.164-14.445l-27.963-0.032h-0.116l-27.962 0.032s0.543 10.613-1.164 14.445c-1.542 3.462 1.552 5.75 5.044 6.709 3.472 0.952 17.438 2.296 24.083 2.31v0.001984h0.116v-0.001984c6.646-0.014008 20.61-1.357 24.084-2.31 3.488-0.95902 6.585-3.247 5.042-6.709z" stroke-width=".541"/>
  <path d="m269.15 16.366c-13.417-15.332-40.248-15.332-53.023-14.054-12.777 1.277-58.135 7.666-68.355 7.666s-55.577-6.389-68.354-7.666c-12.776-1.278-39.607-1.278-53.023 14.054-13.415 15.332-26.831 47.274-24.275 80.492 2.556 33.219 14.056 104.76 28.109 121.38 14.053 16.607 44.717 31.94 51.105 34.498 6.389 2.552 8.942 6.386 10.859 14.689 1.916 8.306-1.917 15.973 13.416 16.611 15.331 0.638 42.162 0.51398 42.162 0.51398s26.832 0.12402 42.163-0.51398c15.331-0.63901 11.499-8.306 13.415-16.611 1.916-8.304 4.472-12.138 10.859-14.689 6.388-2.558 37.054-17.891 51.105-34.498 14.056-16.611 25.555-88.157 28.11-121.38 2.557-33.218-10.86-65.16-24.273-80.492zm-157.94 161.39c-21.678 23.593-38.465 26.569-49.965 22.207-29.741-9.914-31.724-34.103-41.637-88.033-9.914-53.93 49.18-18.1 64.24-12.293 65.829 25.379 32.914 71.774 27.362 78.119zm162.64-65.826c-9.912 53.93-11.895 78.12-41.636 88.033-11.499 4.362-28.288 1.387-49.966-22.207-5.551-6.345-38.464-52.741 27.362-78.119 15.061-5.807 74.155-41.637 64.24 12.293z" stroke-width=".498"/>
  <g fill="none" stroke-width="1.202">
   <path d="m207.02 90.79c-79.532 30.663-39.765 86.72-33.058 94.386 26.19 28.507 46.475 32.1 60.367 26.83 35.937-11.977 38.33-41.203 50.31-106.36 11.979-65.162-59.42-21.87-77.619-14.853zm66.83 21.14c-9.912 53.93-11.895 78.12-41.636 88.033-11.499 4.362-28.288 1.387-49.966-22.207-5.551-6.345-38.464-52.741 27.362-78.119 15.061-5.807 74.155-41.637 64.24 12.293z"/>
   <path d="m86.437 90.79c-18.197-7.017-89.596-50.309-77.618 14.852 11.978 65.16 14.373 94.386 50.307 106.36 13.895 5.271 34.178 1.678 60.369-26.83 6.708-7.665 46.476-63.722-33.058-94.385zm24.772 86.966c-21.678 23.593-38.465 26.569-49.965 22.207-29.741-9.914-31.724-34.103-41.637-88.033-9.914-53.93 49.18-18.1 64.24-12.293 65.829 25.379 32.914 71.774 27.362 78.119z"/>
  </g>
 </g>
</svg>
