<?xml version="1.0" encoding="UTF-8"?>
<svg enable-background="new 0 0 295.547 384.729" viewBox="0 0 295.547 384.729" xmlns="http://www.w3.org/2000/svg">
 <path d="m208.461,358.616c0-5.749-.959-32.58-.959-47.911s-9.103-13.896-16.29-15.812c-7.185-1.917-43.439-3.455-43.439-3.455s-36.252,1.538-43.439,3.455-16.29.479-16.29,15.812-.959,42.162-.959,47.911-2.874,11.021 4.792,14.853 30.024,9.457 55.896,9.457 48.23-5.625 55.897-9.457 4.791-9.103 4.791-14.853z" fill="#fff" stroke="#000" stroke-width=".6012"/>
 <path d="m202.71 301a55.098 7.546 0 1 0 -110.2 0 55.098 7.546 0 1 0 110.2 0" fill="none" stroke="#939598" stroke-width=".5278"/>
 <path d="m269.148,16.366c-13.414-15.332-40.245-15.332-53.02-14.054s-58.135,7.666-68.355,7.666-55.577-6.389-68.354-7.666-39.607-1.278-53.023,14.054-26.831,47.274-24.275,80.492 14.056,104.769 28.109,121.376 44.717,31.941 51.105,34.498 8.942,6.386 10.859,14.691-1.917,15.971 13.416,16.609 42.162.514 42.162.514 26.832.124 42.163-.514 11.499-8.306 13.415-16.609c1.916-8.306 4.472-12.136 10.859-14.691s37.054-17.889 51.105-34.498c14.056-16.607 25.555-88.158 28.11-121.376 2.557-33.218-10.86-65.16-24.276-80.492zm-159.544,135.271c-22.04,6.708-43.121,24.436-44.079,27.31-.958,2.875-8.625,11.019-13.895,1.916s-20.603-45.516-23.477-56.535-1.438-42.641 25.873-52.225 51.266-2.874 59.411,2.396 18.207,27.31 18.207,27.31c4.311,4.312-.001,43.12-22.04,49.828zm157.789-27.309c-2.874,11.019-18.208,47.432-23.479,56.535s-12.935.959-13.893-1.916-22.04-20.602-44.08-27.31-26.352-45.516-22.04-49.828c0,0 10.063-22.039 18.208-27.31 8.146-5.27 32.101-11.978 59.411-2.396s28.749,41.205 25.873,52.225z" fill="#939598" stroke="#000" stroke-width=".6012"/>
 <path d="m176.89 295.19c-1.707-3.832-1.164-14.445-1.164-14.445l-27.963-0.032h-0.116l-27.962 0.032s0.543 10.613-1.164 14.445c-1.542 3.462 1.552 5.75 5.044 6.709 3.472 0.952 17.438 2.296 24.083 2.31v2e-3h0.116v-2e-3c6.646-0.014 20.61-1.357 24.084-2.31 3.488-0.959 6.585-3.247 5.042-6.709z" stroke="#000" stroke-width=".541"/>
 <path d="m269.151,16.366c-13.417-15.332-40.248-15.332-53.023-14.054s-58.135,7.666-68.355,7.666-55.577-6.389-68.354-7.666-39.607-1.278-53.023,14.054-26.831,47.274-24.275,80.492 14.056,104.765 28.109,121.376 44.717,31.94 51.105,34.498c6.389,2.552 8.942,6.386 10.859,14.689 1.916,8.306-1.917,15.973 13.416,16.611s42.162.514 42.162.514 26.832.124 42.163-.514 11.499-8.306 13.415-16.611c1.916-8.304 4.472-12.138 10.859-14.689 6.388-2.558 37.054-17.891 51.105-34.498 14.056-16.611 25.555-88.157 28.11-121.376 2.557-33.218-10.86-65.16-24.273-80.492zm-157.942,161.39c-21.678,23.593-38.465,26.569-49.965,22.207-29.741-9.914-31.724-34.103-41.637-88.033s49.18-18.1 64.24-12.293c65.829,25.379 32.914,71.774 27.362,78.119zm162.643-65.826c-9.912,53.93-11.895,78.12-41.636,88.033-11.499,4.362-28.288,1.387-49.966-22.207-5.551-6.345-38.464-52.741 27.362-78.119 15.061-5.807 74.155-41.637 64.24,12.293z" fill="#fff" stroke="#000" stroke-width=".4976"/>
 <path d="m207.02 90.79c-79.532 30.663-39.765 86.72-33.058 94.386 26.19 28.507 46.475 32.1 60.367 26.83 35.937-11.977 38.33-41.203 50.31-106.36s-59.42-21.87-77.619-14.853zm66.83 21.14c-9.912 53.93-11.895 78.12-41.636 88.033-11.499 4.362-28.288 1.387-49.966-22.207-5.551-6.345-38.464-52.741 27.362-78.119 15.061-5.807 74.155-41.637 64.24 12.293z" fill="none" stroke="#000" stroke-width="1.2024"/>
 <path d="m86.437 90.79c-18.197-7.017-89.596-50.309-77.618 14.852s14.373 94.386 50.307 106.36c13.895 5.271 34.178 1.678 60.369-26.83 6.708-7.665 46.476-63.722-33.058-94.385zm24.772 86.966c-21.678 23.593-38.465 26.569-49.965 22.207-29.741-9.914-31.724-34.103-41.637-88.033s49.18-18.1 64.24-12.293c65.829 25.379 32.914 71.774 27.362 78.119z" fill="none" stroke="#000" stroke-width="1.2024"/>
 <path d="m69.025,1.804c3.963,0 7.532.222 10.394.508 12.776,1.277 58.133,7.666 68.354,7.666s55.578-6.389 68.355-7.666l1.235-.116c2.557-.222 5.576-.383 8.879-.391h.282c13.729,0 32.217,2.666 42.627,14.562 13.413,15.332 26.83,47.273 24.274,80.492s-14.055,104.765-28.11,121.376c-3.878,4.585-9.024,9.067-14.574,13.218-14.557,10.88-31.905,19.428-36.531,21.28-6.388,2.556-8.943,6.386-10.859,14.691s1.916,15.971-13.415,16.609c-4.172.174-9.194.291-14.295.37-.006,2.621.107,6.131.629,8.704 6.637.52 12.487,1.13 14.942,1.786 7.188,1.916 16.29.479 16.29,15.812s.959,42.162.959,47.911 2.875,11.021-4.791,14.853-30.024,9.457-55.897,9.457-48.23-5.625-55.896-9.457-4.792-9.103-4.792-14.853 .959-32.58.959-47.911 9.103-13.896 16.29-15.812c2.438-.65 8.221-1.257 14.797-1.774 .524-2.575.637-6.092.632-8.719-5.052-.078-10.019-.194-14.151-.367-15.333-.639-11.5-8.306-13.416-16.609-1.917-8.306-4.471-12.136-10.859-14.691s-37.052-17.889-51.105-34.498c-.221-.259-.439-.532-.657-.819-8.515-11.153-16.043-42.167-21.14-71.934-.654-3.816-1.269-7.613-1.838-11.344-2.054-13.431-3.55-26.021-4.348-35.695-.043-.537-.085-1.065-.126-1.584-2.556-33.218 10.86-65.16 24.275-80.492 10.409-11.898 28.896-14.563 42.627-14.563m0-1.804c-14.007,0-33.009,2.633-43.986,15.179-13.728,15.69-27.319,47.986-24.716,81.817l.126,1.592c.842,10.207 2.391,22.927 4.363,35.821 .576,3.775 1.196,7.603 1.843,11.376 3.675,21.463 11.353,59.453 21.484,72.724 .237.312.477.611.718.895 14.888,17.596 46.594,32.916 51.809,35.003 5.635,2.254 7.918,5.39 9.772,13.422 .399,1.731.533,3.471.662,5.153 .464,6.043.943,12.291 14.436,12.853 3.347.141 7.514.254 12.407.34-.035,1.697-.132,3.598-.359,5.259-7.072.581-11.566,1.144-13.716,1.717-1.13.302-2.316.516-3.571.742-6.263,1.131-14.057,2.538-14.057,16.812 0,9.484-.375,23.64-.648,33.976-.173,6.553-.311,11.729-.311,13.936 0,1.164-.134,2.359-.263,3.515-.494,4.406-1.053,9.399 6.052,12.951 8.013,4.006 30.903,9.647 56.703,9.647s48.689-5.642 56.704-9.647c7.105-3.552 6.545-8.545 6.052-12.95-.13-1.156-.264-2.351-.264-3.516 0-2.207-.137-7.383-.311-13.936-.273-10.336-.648-24.491-.648-33.976 0-14.274-7.795-15.682-14.058-16.812-1.255-.227-2.44-.44-3.571-.742-2.163-.578-6.704-1.145-13.86-1.729-.226-1.66-.322-3.554-.356-5.244 4.954-.087 9.17-.201 12.551-.343 13.492-.562 13.972-6.81 14.436-12.853 .129-1.683.263-3.422.662-5.153 1.853-8.031 4.136-11.167 9.771-13.422 4.695-1.881 22.17-10.471 36.941-21.511 6.239-4.666 11.243-9.207 14.871-13.497 14.677-17.346 25.996-89.45 28.532-122.403 2.603-33.829-10.987-66.125-24.716-81.817-10.978-12.545-29.978-15.179-43.985-15.179h-.288c-3.029.007-6.067.141-9.029.398l-1.257.118c-4.346.434-12.327,1.442-21.568,2.61-17.803,2.249-39.958,5.047-46.609,5.047s-28.808-2.798-46.61-5.047c-9.24-1.167-17.22-2.175-21.564-2.609-3.384-.338-7.039-.517-10.574-.517z"/>
</svg>
