<?xml version="1.0" encoding="utf-8"?>
<!-- Generator: Adobe Illustrator 24.0.1, SVG Export Plug-In . SVG Version: 6.00 Build 0)  -->
<svg version="1.1" id="Layer_1" xmlns:ev="http://www.w3.org/2001/xml-events"
	 xmlns="http://www.w3.org/2000/svg" xmlns:xlink="http://www.w3.org/1999/xlink" x="0px" y="0px" viewBox="0 0 296 296"
	 style="enable-background:new 0 0 296 296;" xml:space="preserve">
<g>
	<g>
		<rect id="p" x="32" y="32" width="8" height="8"/>
	</g>
	<g>
		<rect id="p_1_" x="32" y="40" width="8" height="8"/>
	</g>
	<g>
		<rect id="p_2_" x="32" y="48" width="8" height="8"/>
	</g>
	<g>
		<rect id="p_3_" x="32" y="56" width="8" height="8"/>
	</g>
	<g>
		<rect id="p_4_" x="32" y="64" width="8" height="8"/>
	</g>
	<g>
		<rect id="p_5_" x="32" y="72" width="8" height="8"/>
	</g>
	<g>
		<rect id="p_6_" x="32" y="80" width="8" height="8"/>
	</g>
	<g>
		<rect id="p_7_" x="32" y="128" width="8" height="8"/>
	</g>
	<g>
		<rect id="p_8_" x="32" y="152" width="8" height="8"/>
	</g>
	<g>
		<rect id="p_9_" x="32" y="168" width="8" height="8"/>
	</g>
	<g>
		<rect id="p_10_" x="32" y="184" width="8" height="8"/>
	</g>
	<g>
		<rect id="p_11_" x="32" y="192" width="8" height="8"/>
	</g>
	<g>
		<rect id="p_12_" x="32" y="208" width="8" height="8"/>
	</g>
	<g>
		<rect id="p_13_" x="32" y="216" width="8" height="8"/>
	</g>
	<g>
		<rect id="p_14_" x="32" y="224" width="8" height="8"/>
	</g>
	<g>
		<rect id="p_15_" x="32" y="232" width="8" height="8"/>
	</g>
	<g>
		<rect id="p_16_" x="32" y="240" width="8" height="8"/>
	</g>
	<g>
		<rect id="p_17_" x="32" y="248" width="8" height="8"/>
	</g>
	<g>
		<rect id="p_18_" x="32" y="256" width="8" height="8"/>
	</g>
	<g>
		<rect id="p_19_" x="40" y="32" width="8" height="8"/>
	</g>
	<g>
		<rect id="p_20_" x="40" y="80" width="8" height="8"/>
	</g>
	<g>
		<rect id="p_21_" x="40" y="104" width="8" height="8"/>
	</g>
	<g>
		<rect id="p_22_" x="40" y="120" width="8" height="8"/>
	</g>
	<g>
		<rect id="p_23_" x="40" y="168" width="8" height="8"/>
	</g>
	<g>
		<rect id="p_24_" x="40" y="176" width="8" height="8"/>
	</g>
	<g>
		<rect id="p_25_" x="40" y="184" width="8" height="8"/>
	</g>
	<g>
		<rect id="p_26_" x="40" y="208" width="8" height="8"/>
	</g>
	<g>
		<rect id="p_27_" x="40" y="256" width="8" height="8"/>
	</g>
	<g>
		<rect id="p_28_" x="48" y="32" width="8" height="8"/>
	</g>
	<g>
		<rect id="p_29_" x="48" y="48" width="8" height="8"/>
	</g>
	<g>
		<rect id="p_30_" x="48" y="56" width="8" height="8"/>
	</g>
	<g>
		<rect id="p_31_" x="48" y="64" width="8" height="8"/>
	</g>
	<g>
		<rect id="p_32_" x="48" y="80" width="8" height="8"/>
	</g>
	<g>
		<rect id="p_33_" x="48" y="96" width="8" height="8"/>
	</g>
	<g>
		<rect id="p_34_" x="48" y="104" width="8" height="8"/>
	</g>
	<g>
		<rect id="p_35_" x="48" y="112" width="8" height="8"/>
	</g>
	<g>
		<rect id="p_36_" x="48" y="120" width="8" height="8"/>
	</g>
	<g>
		<rect id="p_37_" x="48" y="152" width="8" height="8"/>
	</g>
	<g>
		<rect id="p_38_" x="48" y="160" width="8" height="8"/>
	</g>
	<g>
		<rect id="p_39_" x="48" y="176" width="8" height="8"/>
	</g>
	<g>
		<rect id="p_40_" x="48" y="184" width="8" height="8"/>
	</g>
	<g>
		<rect id="p_41_" x="48" y="192" width="8" height="8"/>
	</g>
	<g>
		<rect id="p_42_" x="48" y="208" width="8" height="8"/>
	</g>
	<g>
		<rect id="p_43_" x="48" y="224" width="8" height="8"/>
	</g>
	<g>
		<rect id="p_44_" x="48" y="232" width="8" height="8"/>
	</g>
	<g>
		<rect id="p_45_" x="48" y="240" width="8" height="8"/>
	</g>
	<g>
		<rect id="p_46_" x="48" y="256" width="8" height="8"/>
	</g>
	<g>
		<rect id="p_47_" x="56" y="32" width="8" height="8"/>
	</g>
	<g>
		<rect id="p_48_" x="56" y="48" width="8" height="8"/>
	</g>
	<g>
		<rect id="p_49_" x="56" y="56" width="8" height="8"/>
	</g>
	<g>
		<rect id="p_50_" x="56" y="64" width="8" height="8"/>
	</g>
	<g>
		<rect id="p_51_" x="56" y="80" width="8" height="8"/>
	</g>
	<g>
		<rect id="p_52_" x="56" y="96" width="8" height="8"/>
	</g>
	<g>
		<rect id="p_53_" x="56" y="104" width="8" height="8"/>
	</g>
	<g>
		<rect id="p_54_" x="56" y="120" width="8" height="8"/>
	</g>
	<g>
		<rect id="p_55_" x="56" y="136" width="8" height="8"/>
	</g>
	<g>
		<rect id="p_56_" x="56" y="152" width="8" height="8"/>
	</g>
	<g>
		<rect id="p_57_" x="56" y="160" width="8" height="8"/>
	</g>
	<g>
		<rect id="p_58_" x="56" y="176" width="8" height="8"/>
	</g>
	<g>
		<rect id="p_59_" x="56" y="184" width="8" height="8"/>
	</g>
	<g>
		<rect id="p_60_" x="56" y="192" width="8" height="8"/>
	</g>
	<g>
		<rect id="p_61_" x="56" y="208" width="8" height="8"/>
	</g>
	<g>
		<rect id="p_62_" x="56" y="224" width="8" height="8"/>
	</g>
	<g>
		<rect id="p_63_" x="56" y="232" width="8" height="8"/>
	</g>
	<g>
		<rect id="p_64_" x="56" y="240" width="8" height="8"/>
	</g>
	<g>
		<rect id="p_65_" x="56" y="256" width="8" height="8"/>
	</g>
	<g>
		<rect id="p_66_" x="64" y="32" width="8" height="8"/>
	</g>
	<g>
		<rect id="p_67_" x="64" y="48" width="8" height="8"/>
	</g>
	<g>
		<rect id="p_68_" x="64" y="56" width="8" height="8"/>
	</g>
	<g>
		<rect id="p_69_" x="64" y="64" width="8" height="8"/>
	</g>
	<g>
		<rect id="p_70_" x="64" y="80" width="8" height="8"/>
	</g>
	<g>
		<rect id="p_71_" x="64" y="104" width="8" height="8"/>
	</g>
	<g>
		<rect id="p_72_" x="64" y="112" width="8" height="8"/>
	</g>
	<g>
		<rect id="p_73_" x="64" y="128" width="8" height="8"/>
	</g>
	<g>
		<rect id="p_74_" x="64" y="136" width="8" height="8"/>
	</g>
	<g>
		<rect id="p_75_" x="64" y="176" width="8" height="8"/>
	</g>
	<g>
		<rect id="p_76_" x="64" y="184" width="8" height="8"/>
	</g>
	<g>
		<rect id="p_77_" x="64" y="208" width="8" height="8"/>
	</g>
	<g>
		<rect id="p_78_" x="64" y="224" width="8" height="8"/>
	</g>
	<g>
		<rect id="p_79_" x="64" y="232" width="8" height="8"/>
	</g>
	<g>
		<rect id="p_80_" x="64" y="240" width="8" height="8"/>
	</g>
	<g>
		<rect id="p_81_" x="64" y="256" width="8" height="8"/>
	</g>
	<g>
		<rect id="p_82_" x="72" y="32" width="8" height="8"/>
	</g>
	<g>
		<rect id="p_83_" x="72" y="80" width="8" height="8"/>
	</g>
	<g>
		<rect id="p_84_" x="72" y="112" width="8" height="8"/>
	</g>
	<g>
		<rect id="p_85_" x="72" y="128" width="8" height="8"/>
	</g>
	<g>
		<rect id="p_86_" x="72" y="136" width="8" height="8"/>
	</g>
	<g>
		<rect id="p_87_" x="72" y="160" width="8" height="8"/>
	</g>
	<g>
		<rect id="p_88_" x="72" y="168" width="8" height="8"/>
	</g>
	<g>
		<rect id="p_89_" x="72" y="176" width="8" height="8"/>
	</g>
	<g>
		<rect id="p_90_" x="72" y="184" width="8" height="8"/>
	</g>
	<g>
		<rect id="p_91_" x="72" y="208" width="8" height="8"/>
	</g>
	<g>
		<rect id="p_92_" x="72" y="256" width="8" height="8"/>
	</g>
	<g>
		<rect id="p_93_" x="80" y="32" width="8" height="8"/>
	</g>
	<g>
		<rect id="p_94_" x="80" y="40" width="8" height="8"/>
	</g>
	<g>
		<rect id="p_95_" x="80" y="48" width="8" height="8"/>
	</g>
	<g>
		<rect id="p_96_" x="80" y="56" width="8" height="8"/>
	</g>
	<g>
		<rect id="p_97_" x="80" y="64" width="8" height="8"/>
	</g>
	<g>
		<rect id="p_98_" x="80" y="72" width="8" height="8"/>
	</g>
	<g>
		<rect id="p_99_" x="80" y="80" width="8" height="8"/>
	</g>
	<g>
		<rect id="p_100_" x="80" y="96" width="8" height="8"/>
	</g>
	<g>
		<rect id="p_101_" x="80" y="112" width="8" height="8"/>
	</g>
	<g>
		<rect id="p_102_" x="80" y="128" width="8" height="8"/>
	</g>
	<g>
		<rect id="p_103_" x="80" y="144" width="8" height="8"/>
	</g>
	<g>
		<rect id="p_104_" x="80" y="160" width="8" height="8"/>
	</g>
	<g>
		<rect id="p_105_" x="80" y="176" width="8" height="8"/>
	</g>
	<g>
		<rect id="p_106_" x="80" y="192" width="8" height="8"/>
	</g>
	<g>
		<rect id="p_107_" x="80" y="208" width="8" height="8"/>
	</g>
	<g>
		<rect id="p_108_" x="80" y="216" width="8" height="8"/>
	</g>
	<g>
		<rect id="p_109_" x="80" y="224" width="8" height="8"/>
	</g>
	<g>
		<rect id="p_110_" x="80" y="232" width="8" height="8"/>
	</g>
	<g>
		<rect id="p_111_" x="80" y="240" width="8" height="8"/>
	</g>
	<g>
		<rect id="p_112_" x="80" y="248" width="8" height="8"/>
	</g>
	<g>
		<rect id="p_113_" x="80" y="256" width="8" height="8"/>
	</g>
	<g>
		<rect id="p_114_" x="88" y="96" width="8" height="8"/>
	</g>
	<g>
		<rect id="p_115_" x="88" y="104" width="8" height="8"/>
	</g>
	<g>
		<rect id="p_116_" x="88" y="112" width="8" height="8"/>
	</g>
	<g>
		<rect id="p_117_" x="88" y="152" width="8" height="8"/>
	</g>
	<g>
		<rect id="p_118_" x="88" y="160" width="8" height="8"/>
	</g>
	<g>
		<rect id="p_119_" x="88" y="176" width="8" height="8"/>
	</g>
	<g>
		<rect id="p_120_" x="88" y="192" width="8" height="8"/>
	</g>
	<g>
		<rect id="p_121_" x="96" y="64" width="8" height="8"/>
	</g>
	<g>
		<rect id="p_122_" x="96" y="80" width="8" height="8"/>
	</g>
	<g>
		<rect id="p_123_" x="96" y="88" width="8" height="8"/>
	</g>
	<g>
		<rect id="p_124_" x="96" y="96" width="8" height="8"/>
	</g>
	<g>
		<rect id="p_125_" x="96" y="112" width="8" height="8"/>
	</g>
	<g>
		<rect id="p_126_" x="96" y="128" width="8" height="8"/>
	</g>
	<g>
		<rect id="p_127_" x="96" y="160" width="8" height="8"/>
	</g>
	<g>
		<rect id="p_128_" x="96" y="176" width="8" height="8"/>
	</g>
	<g>
		<rect id="p_129_" x="96" y="184" width="8" height="8"/>
	</g>
	<g>
		<rect id="p_130_" x="96" y="200" width="8" height="8"/>
	</g>
	<g>
		<rect id="p_131_" x="96" y="208" width="8" height="8"/>
	</g>
	<g>
		<rect id="p_132_" x="96" y="232" width="8" height="8"/>
	</g>
	<g>
		<rect id="p_133_" x="96" y="240" width="8" height="8"/>
	</g>
	<g>
		<rect id="p_134_" x="104" y="32" width="8" height="8"/>
	</g>
	<g>
		<rect id="p_135_" x="104" y="48" width="8" height="8"/>
	</g>
	<g>
		<rect id="p_136_" x="104" y="72" width="8" height="8"/>
	</g>
	<g>
		<rect id="p_137_" x="104" y="96" width="8" height="8"/>
	</g>
	<g>
		<rect id="p_138_" x="104" y="104" width="8" height="8"/>
	</g>
	<g>
		<rect id="p_139_" x="104" y="120" width="8" height="8"/>
	</g>
	<g>
		<rect id="p_140_" x="104" y="152" width="8" height="8"/>
	</g>
	<g>
		<rect id="p_141_" x="104" y="200" width="8" height="8"/>
	</g>
	<g>
		<rect id="p_142_" x="104" y="208" width="8" height="8"/>
	</g>
	<g>
		<rect id="p_143_" x="104" y="216" width="8" height="8"/>
	</g>
	<g>
		<rect id="p_144_" x="104" y="232" width="8" height="8"/>
	</g>
	<g>
		<rect id="p_145_" x="112" y="32" width="8" height="8"/>
	</g>
	<g>
		<rect id="p_146_" x="112" y="48" width="8" height="8"/>
	</g>
	<g>
		<rect id="p_147_" x="112" y="64" width="8" height="8"/>
	</g>
	<g>
		<rect id="p_148_" x="112" y="72" width="8" height="8"/>
	</g>
	<g>
		<rect id="p_149_" x="112" y="80" width="8" height="8"/>
	</g>
	<g>
		<rect id="p_150_" x="112" y="88" width="8" height="8"/>
	</g>
	<g>
		<rect id="p_151_" x="112" y="112" width="8" height="8"/>
	</g>
	<g>
		<rect id="p_152_" x="112" y="120" width="8" height="8"/>
	</g>
	<g>
		<rect id="p_153_" x="112" y="128" width="8" height="8"/>
	</g>
	<g>
		<rect id="p_154_" x="112" y="144" width="8" height="8"/>
	</g>
	<g>
		<rect id="p_155_" x="112" y="152" width="8" height="8"/>
	</g>
	<g>
		<rect id="p_156_" x="112" y="160" width="8" height="8"/>
	</g>
	<g>
		<rect id="p_157_" x="112" y="168" width="8" height="8"/>
	</g>
	<g>
		<rect id="p_158_" x="112" y="184" width="8" height="8"/>
	</g>
	<g>
		<rect id="p_159_" x="112" y="192" width="8" height="8"/>
	</g>
	<g>
		<rect id="p_160_" x="112" y="216" width="8" height="8"/>
	</g>
	<g>
		<rect id="p_161_" x="112" y="232" width="8" height="8"/>
	</g>
	<g>
		<rect id="p_162_" x="112" y="240" width="8" height="8"/>
	</g>
	<g>
		<rect id="p_163_" x="112" y="256" width="8" height="8"/>
	</g>
	<g>
		<rect id="p_164_" x="120" y="32" width="8" height="8"/>
	</g>
	<g>
		<rect id="p_165_" x="120" y="56" width="8" height="8"/>
	</g>
	<g>
		<rect id="p_166_" x="120" y="88" width="8" height="8"/>
	</g>
	<g>
		<rect id="p_167_" x="120" y="144" width="8" height="8"/>
	</g>
	<g>
		<rect id="p_168_" x="120" y="152" width="8" height="8"/>
	</g>
	<g>
		<rect id="p_169_" x="120" y="176" width="8" height="8"/>
	</g>
	<g>
		<rect id="p_170_" x="120" y="184" width="8" height="8"/>
	</g>
	<g>
		<rect id="p_171_" x="120" y="192" width="8" height="8"/>
	</g>
	<g>
		<rect id="p_172_" x="120" y="216" width="8" height="8"/>
	</g>
	<g>
		<rect id="p_173_" x="120" y="224" width="8" height="8"/>
	</g>
	<g>
		<rect id="p_174_" x="120" y="248" width="8" height="8"/>
	</g>
	<g>
		<rect id="p_175_" x="120" y="256" width="8" height="8"/>
	</g>
	<g>
		<rect id="p_176_" x="128" y="32" width="8" height="8"/>
	</g>
	<g>
		<rect id="p_177_" x="128" y="48" width="8" height="8"/>
	</g>
	<g>
		<rect id="p_178_" x="128" y="80" width="8" height="8"/>
	</g>
	<g>
		<rect id="p_179_" x="128" y="96" width="8" height="8"/>
	</g>
	<g>
		<rect id="p_180_" x="128" y="112" width="8" height="8"/>
	</g>
	<g>
		<rect id="p_181_" x="128" y="160" width="8" height="8"/>
	</g>
	<g>
		<rect id="p_182_" x="128" y="168" width="8" height="8"/>
	</g>
	<g>
		<rect id="p_183_" x="128" y="176" width="8" height="8"/>
	</g>
	<g>
		<rect id="p_184_" x="128" y="184" width="8" height="8"/>
	</g>
	<g>
		<rect id="p_185_" x="128" y="192" width="8" height="8"/>
	</g>
	<g>
		<rect id="p_186_" x="128" y="208" width="8" height="8"/>
	</g>
	<g>
		<rect id="p_187_" x="128" y="216" width="8" height="8"/>
	</g>
	<g>
		<rect id="p_188_" x="128" y="232" width="8" height="8"/>
	</g>
	<g>
		<rect id="p_189_" x="136" y="32" width="8" height="8"/>
	</g>
	<g>
		<rect id="p_190_" x="136" y="64" width="8" height="8"/>
	</g>
	<g>
		<rect id="p_191_" x="136" y="104" width="8" height="8"/>
	</g>
	<g>
		<rect id="p_192_" x="136" y="112" width="8" height="8"/>
	</g>
	<g>
		<rect id="p_193_" x="136" y="120" width="8" height="8"/>
	</g>
	<g>
		<rect id="p_194_" x="136" y="128" width="8" height="8"/>
	</g>
	<g>
		<rect id="p_195_" x="136" y="136" width="8" height="8"/>
	</g>
	<g>
		<rect id="p_196_" x="136" y="144" width="8" height="8"/>
	</g>
	<g>
		<rect id="p_197_" x="136" y="152" width="8" height="8"/>
	</g>
	<g>
		<rect id="p_198_" x="136" y="192" width="8" height="8"/>
	</g>
	<g>
		<rect id="p_199_" x="136" y="200" width="8" height="8"/>
	</g>
	<g>
		<rect id="p_200_" x="136" y="208" width="8" height="8"/>
	</g>
	<g>
		<rect id="p_201_" x="136" y="216" width="8" height="8"/>
	</g>
	<g>
		<rect id="p_202_" x="136" y="232" width="8" height="8"/>
	</g>
	<g>
		<rect id="p_203_" x="136" y="256" width="8" height="8"/>
	</g>
	<g>
		<rect id="p_204_" x="144" y="40" width="8" height="8"/>
	</g>
	<g>
		<rect id="p_205_" x="144" y="56" width="8" height="8"/>
	</g>
	<g>
		<rect id="p_206_" x="144" y="72" width="8" height="8"/>
	</g>
	<g>
		<rect id="p_207_" x="144" y="80" width="8" height="8"/>
	</g>
	<g>
		<rect id="p_208_" x="144" y="96" width="8" height="8"/>
	</g>
	<g>
		<rect id="p_209_" x="144" y="152" width="8" height="8"/>
	</g>
	<g>
		<rect id="p_210_" x="144" y="176" width="8" height="8"/>
	</g>
	<g>
		<rect id="p_211_" x="144" y="184" width="8" height="8"/>
	</g>
	<g>
		<rect id="p_212_" x="144" y="200" width="8" height="8"/>
	</g>
	<g>
		<rect id="p_213_" x="144" y="256" width="8" height="8"/>
	</g>
	<g>
		<rect id="p_214_" x="152" y="32" width="8" height="8"/>
	</g>
	<g>
		<rect id="p_215_" x="152" y="56" width="8" height="8"/>
	</g>
	<g>
		<rect id="p_216_" x="152" y="72" width="8" height="8"/>
	</g>
	<g>
		<rect id="p_217_" x="152" y="96" width="8" height="8"/>
	</g>
	<g>
		<rect id="p_218_" x="152" y="112" width="8" height="8"/>
	</g>
	<g>
		<rect id="p_219_" x="152" y="120" width="8" height="8"/>
	</g>
	<g>
		<rect id="p_220_" x="152" y="128" width="8" height="8"/>
	</g>
	<g>
		<rect id="p_221_" x="152" y="136" width="8" height="8"/>
	</g>
	<g>
		<rect id="p_222_" x="152" y="152" width="8" height="8"/>
	</g>
	<g>
		<rect id="p_223_" x="152" y="168" width="8" height="8"/>
	</g>
	<g>
		<rect id="p_224_" x="152" y="184" width="8" height="8"/>
	</g>
	<g>
		<rect id="p_225_" x="152" y="208" width="8" height="8"/>
	</g>
	<g>
		<rect id="p_226_" x="152" y="216" width="8" height="8"/>
	</g>
	<g>
		<rect id="p_227_" x="152" y="224" width="8" height="8"/>
	</g>
	<g>
		<rect id="p_228_" x="152" y="232" width="8" height="8"/>
	</g>
	<g>
		<rect id="p_229_" x="160" y="32" width="8" height="8"/>
	</g>
	<g>
		<rect id="p_230_" x="160" y="48" width="8" height="8"/>
	</g>
	<g>
		<rect id="p_231_" x="160" y="64" width="8" height="8"/>
	</g>
	<g>
		<rect id="p_232_" x="160" y="80" width="8" height="8"/>
	</g>
	<g>
		<rect id="p_233_" x="160" y="88" width="8" height="8"/>
	</g>
	<g>
		<rect id="p_234_" x="160" y="104" width="8" height="8"/>
	</g>
	<g>
		<rect id="p_235_" x="160" y="112" width="8" height="8"/>
	</g>
	<g>
		<rect id="p_236_" x="160" y="120" width="8" height="8"/>
	</g>
	<g>
		<rect id="p_237_" x="160" y="128" width="8" height="8"/>
	</g>
	<g>
		<rect id="p_238_" x="160" y="144" width="8" height="8"/>
	</g>
	<g>
		<rect id="p_239_" x="160" y="184" width="8" height="8"/>
	</g>
	<g>
		<rect id="p_240_" x="160" y="192" width="8" height="8"/>
	</g>
	<g>
		<rect id="p_241_" x="160" y="200" width="8" height="8"/>
	</g>
	<g>
		<rect id="p_242_" x="160" y="208" width="8" height="8"/>
	</g>
	<g>
		<rect id="p_243_" x="160" y="216" width="8" height="8"/>
	</g>
	<g>
		<rect id="p_244_" x="160" y="224" width="8" height="8"/>
	</g>
	<g>
		<rect id="p_245_" x="160" y="232" width="8" height="8"/>
	</g>
	<g>
		<rect id="p_246_" x="168" y="32" width="8" height="8"/>
	</g>
	<g>
		<rect id="p_247_" x="168" y="56" width="8" height="8"/>
	</g>
	<g>
		<rect id="p_248_" x="168" y="72" width="8" height="8"/>
	</g>
	<g>
		<rect id="p_249_" x="168" y="104" width="8" height="8"/>
	</g>
	<g>
		<rect id="p_250_" x="168" y="120" width="8" height="8"/>
	</g>
	<g>
		<rect id="p_251_" x="168" y="136" width="8" height="8"/>
	</g>
	<g>
		<rect id="p_252_" x="168" y="152" width="8" height="8"/>
	</g>
	<g>
		<rect id="p_253_" x="168" y="184" width="8" height="8"/>
	</g>
	<g>
		<rect id="p_254_" x="168" y="224" width="8" height="8"/>
	</g>
	<g>
		<rect id="p_255_" x="168" y="240" width="8" height="8"/>
	</g>
	<g>
		<rect id="p_256_" x="176" y="32" width="8" height="8"/>
	</g>
	<g>
		<rect id="p_257_" x="176" y="72" width="8" height="8"/>
	</g>
	<g>
		<rect id="p_258_" x="176" y="80" width="8" height="8"/>
	</g>
	<g>
		<rect id="p_259_" x="176" y="96" width="8" height="8"/>
	</g>
	<g>
		<rect id="p_260_" x="176" y="104" width="8" height="8"/>
	</g>
	<g>
		<rect id="p_261_" x="176" y="112" width="8" height="8"/>
	</g>
	<g>
		<rect id="p_262_" x="176" y="120" width="8" height="8"/>
	</g>
	<g>
		<rect id="p_263_" x="176" y="136" width="8" height="8"/>
	</g>
	<g>
		<rect id="p_264_" x="176" y="144" width="8" height="8"/>
	</g>
	<g>
		<rect id="p_265_" x="176" y="152" width="8" height="8"/>
	</g>
	<g>
		<rect id="p_266_" x="176" y="160" width="8" height="8"/>
	</g>
	<g>
		<rect id="p_267_" x="176" y="176" width="8" height="8"/>
	</g>
	<g>
		<rect id="p_268_" x="176" y="192" width="8" height="8"/>
	</g>
	<g>
		<rect id="p_269_" x="176" y="224" width="8" height="8"/>
	</g>
	<g>
		<rect id="p_270_" x="176" y="248" width="8" height="8"/>
	</g>
	<g>
		<rect id="p_271_" x="184" y="56" width="8" height="8"/>
	</g>
	<g>
		<rect id="p_272_" x="184" y="64" width="8" height="8"/>
	</g>
	<g>
		<rect id="p_273_" x="184" y="72" width="8" height="8"/>
	</g>
	<g>
		<rect id="p_274_" x="184" y="96" width="8" height="8"/>
	</g>
	<g>
		<rect id="p_275_" x="184" y="104" width="8" height="8"/>
	</g>
	<g>
		<rect id="p_276_" x="184" y="120" width="8" height="8"/>
	</g>
	<g>
		<rect id="p_277_" x="184" y="128" width="8" height="8"/>
	</g>
	<g>
		<rect id="p_278_" x="184" y="136" width="8" height="8"/>
	</g>
	<g>
		<rect id="p_279_" x="184" y="144" width="8" height="8"/>
	</g>
	<g>
		<rect id="p_280_" x="184" y="160" width="8" height="8"/>
	</g>
	<g>
		<rect id="p_281_" x="184" y="184" width="8" height="8"/>
	</g>
	<g>
		<rect id="p_282_" x="184" y="208" width="8" height="8"/>
	</g>
	<g>
		<rect id="p_283_" x="184" y="232" width="8" height="8"/>
	</g>
	<g>
		<rect id="p_284_" x="184" y="256" width="8" height="8"/>
	</g>
	<g>
		<rect id="p_285_" x="192" y="48" width="8" height="8"/>
	</g>
	<g>
		<rect id="p_286_" x="192" y="56" width="8" height="8"/>
	</g>
	<g>
		<rect id="p_287_" x="192" y="72" width="8" height="8"/>
	</g>
	<g>
		<rect id="p_288_" x="192" y="80" width="8" height="8"/>
	</g>
	<g>
		<rect id="p_289_" x="192" y="88" width="8" height="8"/>
	</g>
	<g>
		<rect id="p_290_" x="192" y="120" width="8" height="8"/>
	</g>
	<g>
		<rect id="p_291_" x="192" y="160" width="8" height="8"/>
	</g>
	<g>
		<rect id="p_292_" x="192" y="168" width="8" height="8"/>
	</g>
	<g>
		<rect id="p_293_" x="192" y="176" width="8" height="8"/>
	</g>
	<g>
		<rect id="p_294_" x="192" y="192" width="8" height="8"/>
	</g>
	<g>
		<rect id="p_295_" x="192" y="200" width="8" height="8"/>
	</g>
	<g>
		<rect id="p_296_" x="192" y="208" width="8" height="8"/>
	</g>
	<g>
		<rect id="p_297_" x="192" y="216" width="8" height="8"/>
	</g>
	<g>
		<rect id="p_298_" x="192" y="224" width="8" height="8"/>
	</g>
	<g>
		<rect id="p_299_" x="192" y="240" width="8" height="8"/>
	</g>
	<g>
		<rect id="p_300_" x="192" y="248" width="8" height="8"/>
	</g>
	<g>
		<rect id="p_301_" x="192" y="256" width="8" height="8"/>
	</g>
	<g>
		<rect id="p_302_" x="200" y="96" width="8" height="8"/>
	</g>
	<g>
		<rect id="p_303_" x="200" y="104" width="8" height="8"/>
	</g>
	<g>
		<rect id="p_304_" x="200" y="128" width="8" height="8"/>
	</g>
	<g>
		<rect id="p_305_" x="200" y="144" width="8" height="8"/>
	</g>
	<g>
		<rect id="p_306_" x="200" y="152" width="8" height="8"/>
	</g>
	<g>
		<rect id="p_307_" x="200" y="160" width="8" height="8"/>
	</g>
	<g>
		<rect id="p_308_" x="200" y="184" width="8" height="8"/>
	</g>
	<g>
		<rect id="p_309_" x="200" y="192" width="8" height="8"/>
	</g>
	<g>
		<rect id="p_310_" x="200" y="224" width="8" height="8"/>
	</g>
	<g>
		<rect id="p_311_" x="200" y="248" width="8" height="8"/>
	</g>
	<g>
		<rect id="p_312_" x="200" y="256" width="8" height="8"/>
	</g>
	<g>
		<rect id="p_313_" x="208" y="32" width="8" height="8"/>
	</g>
	<g>
		<rect id="p_314_" x="208" y="40" width="8" height="8"/>
	</g>
	<g>
		<rect id="p_315_" x="208" y="48" width="8" height="8"/>
	</g>
	<g>
		<rect id="p_316_" x="208" y="56" width="8" height="8"/>
	</g>
	<g>
		<rect id="p_317_" x="208" y="64" width="8" height="8"/>
	</g>
	<g>
		<rect id="p_318_" x="208" y="72" width="8" height="8"/>
	</g>
	<g>
		<rect id="p_319_" x="208" y="80" width="8" height="8"/>
	</g>
	<g>
		<rect id="p_320_" x="208" y="96" width="8" height="8"/>
	</g>
	<g>
		<rect id="p_321_" x="208" y="104" width="8" height="8"/>
	</g>
	<g>
		<rect id="p_322_" x="208" y="112" width="8" height="8"/>
	</g>
	<g>
		<rect id="p_323_" x="208" y="136" width="8" height="8"/>
	</g>
	<g>
		<rect id="p_324_" x="208" y="152" width="8" height="8"/>
	</g>
	<g>
		<rect id="p_325_" x="208" y="176" width="8" height="8"/>
	</g>
	<g>
		<rect id="p_326_" x="208" y="184" width="8" height="8"/>
	</g>
	<g>
		<rect id="p_327_" x="208" y="192" width="8" height="8"/>
	</g>
	<g>
		<rect id="p_328_" x="208" y="208" width="8" height="8"/>
	</g>
	<g>
		<rect id="p_329_" x="208" y="224" width="8" height="8"/>
	</g>
	<g>
		<rect id="p_330_" x="208" y="256" width="8" height="8"/>
	</g>
	<g>
		<rect id="p_331_" x="216" y="32" width="8" height="8"/>
	</g>
	<g>
		<rect id="p_332_" x="216" y="80" width="8" height="8"/>
	</g>
	<g>
		<rect id="p_333_" x="216" y="120" width="8" height="8"/>
	</g>
	<g>
		<rect id="p_334_" x="216" y="128" width="8" height="8"/>
	</g>
	<g>
		<rect id="p_335_" x="216" y="136" width="8" height="8"/>
	</g>
	<g>
		<rect id="p_336_" x="216" y="144" width="8" height="8"/>
	</g>
	<g>
		<rect id="p_337_" x="216" y="160" width="8" height="8"/>
	</g>
	<g>
		<rect id="p_338_" x="216" y="168" width="8" height="8"/>
	</g>
	<g>
		<rect id="p_339_" x="216" y="176" width="8" height="8"/>
	</g>
	<g>
		<rect id="p_340_" x="216" y="192" width="8" height="8"/>
	</g>
	<g>
		<rect id="p_341_" x="216" y="224" width="8" height="8"/>
	</g>
	<g>
		<rect id="p_342_" x="216" y="240" width="8" height="8"/>
	</g>
	<g>
		<rect id="p_343_" x="216" y="256" width="8" height="8"/>
	</g>
	<g>
		<rect id="p_344_" x="224" y="32" width="8" height="8"/>
	</g>
	<g>
		<rect id="p_345_" x="224" y="48" width="8" height="8"/>
	</g>
	<g>
		<rect id="p_346_" x="224" y="56" width="8" height="8"/>
	</g>
	<g>
		<rect id="p_347_" x="224" y="64" width="8" height="8"/>
	</g>
	<g>
		<rect id="p_348_" x="224" y="80" width="8" height="8"/>
	</g>
	<g>
		<rect id="p_349_" x="224" y="96" width="8" height="8"/>
	</g>
	<g>
		<rect id="p_350_" x="224" y="104" width="8" height="8"/>
	</g>
	<g>
		<rect id="p_351_" x="224" y="144" width="8" height="8"/>
	</g>
	<g>
		<rect id="p_352_" x="224" y="152" width="8" height="8"/>
	</g>
	<g>
		<rect id="p_353_" x="224" y="160" width="8" height="8"/>
	</g>
	<g>
		<rect id="p_354_" x="224" y="176" width="8" height="8"/>
	</g>
	<g>
		<rect id="p_355_" x="224" y="184" width="8" height="8"/>
	</g>
	<g>
		<rect id="p_356_" x="224" y="192" width="8" height="8"/>
	</g>
	<g>
		<rect id="p_357_" x="224" y="200" width="8" height="8"/>
	</g>
	<g>
		<rect id="p_358_" x="224" y="208" width="8" height="8"/>
	</g>
	<g>
		<rect id="p_359_" x="224" y="216" width="8" height="8"/>
	</g>
	<g>
		<rect id="p_360_" x="224" y="224" width="8" height="8"/>
	</g>
	<g>
		<rect id="p_361_" x="224" y="232" width="8" height="8"/>
	</g>
	<g>
		<rect id="p_362_" x="224" y="248" width="8" height="8"/>
	</g>
	<g>
		<rect id="p_363_" x="232" y="32" width="8" height="8"/>
	</g>
	<g>
		<rect id="p_364_" x="232" y="48" width="8" height="8"/>
	</g>
	<g>
		<rect id="p_365_" x="232" y="56" width="8" height="8"/>
	</g>
	<g>
		<rect id="p_366_" x="232" y="64" width="8" height="8"/>
	</g>
	<g>
		<rect id="p_367_" x="232" y="80" width="8" height="8"/>
	</g>
	<g>
		<rect id="p_368_" x="232" y="104" width="8" height="8"/>
	</g>
	<g>
		<rect id="p_369_" x="232" y="136" width="8" height="8"/>
	</g>
	<g>
		<rect id="p_370_" x="232" y="144" width="8" height="8"/>
	</g>
	<g>
		<rect id="p_371_" x="232" y="152" width="8" height="8"/>
	</g>
	<g>
		<rect id="p_372_" x="232" y="160" width="8" height="8"/>
	</g>
	<g>
		<rect id="p_373_" x="232" y="176" width="8" height="8"/>
	</g>
	<g>
		<rect id="p_374_" x="232" y="184" width="8" height="8"/>
	</g>
	<g>
		<rect id="p_375_" x="232" y="192" width="8" height="8"/>
	</g>
	<g>
		<rect id="p_376_" x="232" y="200" width="8" height="8"/>
	</g>
	<g>
		<rect id="p_377_" x="232" y="224" width="8" height="8"/>
	</g>
	<g>
		<rect id="p_378_" x="232" y="248" width="8" height="8"/>
	</g>
	<g>
		<rect id="p_379_" x="240" y="32" width="8" height="8"/>
	</g>
	<g>
		<rect id="p_380_" x="240" y="48" width="8" height="8"/>
	</g>
	<g>
		<rect id="p_381_" x="240" y="56" width="8" height="8"/>
	</g>
	<g>
		<rect id="p_382_" x="240" y="64" width="8" height="8"/>
	</g>
	<g>
		<rect id="p_383_" x="240" y="80" width="8" height="8"/>
	</g>
	<g>
		<rect id="p_384_" x="240" y="112" width="8" height="8"/>
	</g>
	<g>
		<rect id="p_385_" x="240" y="128" width="8" height="8"/>
	</g>
	<g>
		<rect id="p_386_" x="240" y="136" width="8" height="8"/>
	</g>
	<g>
		<rect id="p_387_" x="240" y="176" width="8" height="8"/>
	</g>
	<g>
		<rect id="p_388_" x="240" y="184" width="8" height="8"/>
	</g>
	<g>
		<rect id="p_389_" x="240" y="192" width="8" height="8"/>
	</g>
	<g>
		<rect id="p_390_" x="240" y="208" width="8" height="8"/>
	</g>
	<g>
		<rect id="p_391_" x="240" y="224" width="8" height="8"/>
	</g>
	<g>
		<rect id="p_392_" x="240" y="232" width="8" height="8"/>
	</g>
	<g>
		<rect id="p_393_" x="248" y="32" width="8" height="8"/>
	</g>
	<g>
		<rect id="p_394_" x="248" y="80" width="8" height="8"/>
	</g>
	<g>
		<rect id="p_395_" x="248" y="112" width="8" height="8"/>
	</g>
	<g>
		<rect id="p_396_" x="248" y="128" width="8" height="8"/>
	</g>
	<g>
		<rect id="p_397_" x="248" y="136" width="8" height="8"/>
	</g>
	<g>
		<rect id="p_398_" x="248" y="144" width="8" height="8"/>
	</g>
	<g>
		<rect id="p_399_" x="248" y="184" width="8" height="8"/>
	</g>
	<g>
		<rect id="p_400_" x="248" y="192" width="8" height="8"/>
	</g>
	<g>
		<rect id="p_401_" x="248" y="200" width="8" height="8"/>
	</g>
	<g>
		<rect id="p_402_" x="248" y="208" width="8" height="8"/>
	</g>
	<g>
		<rect id="p_403_" x="248" y="216" width="8" height="8"/>
	</g>
	<g>
		<rect id="p_404_" x="248" y="232" width="8" height="8"/>
	</g>
	<g>
		<rect id="p_405_" x="248" y="248" width="8" height="8"/>
	</g>
	<g>
		<rect id="p_406_" x="248" y="256" width="8" height="8"/>
	</g>
	<g>
		<rect id="p_407_" x="256" y="32" width="8" height="8"/>
	</g>
	<g>
		<rect id="p_408_" x="256" y="40" width="8" height="8"/>
	</g>
	<g>
		<rect id="p_409_" x="256" y="48" width="8" height="8"/>
	</g>
	<g>
		<rect id="p_410_" x="256" y="56" width="8" height="8"/>
	</g>
	<g>
		<rect id="p_411_" x="256" y="64" width="8" height="8"/>
	</g>
	<g>
		<rect id="p_412_" x="256" y="72" width="8" height="8"/>
	</g>
	<g>
		<rect id="p_413_" x="256" y="80" width="8" height="8"/>
	</g>
	<g>
		<rect id="p_414_" x="256" y="104" width="8" height="8"/>
	</g>
	<g>
		<rect id="p_415_" x="256" y="120" width="8" height="8"/>
	</g>
	<g>
		<rect id="p_416_" x="256" y="128" width="8" height="8"/>
	</g>
	<g>
		<rect id="p_417_" x="256" y="136" width="8" height="8"/>
	</g>
	<g>
		<rect id="p_418_" x="256" y="144" width="8" height="8"/>
	</g>
	<g>
		<rect id="p_419_" x="256" y="184" width="8" height="8"/>
	</g>
	<g>
		<rect id="p_420_" x="256" y="192" width="8" height="8"/>
	</g>
	<g>
		<rect id="p_421_" x="256" y="200" width="8" height="8"/>
	</g>
	<g>
		<rect id="p_422_" x="256" y="216" width="8" height="8"/>
	</g>
	<g>
		<rect id="p_423_" x="256" y="224" width="8" height="8"/>
	</g>
	<g>
		<rect id="p_424_" x="256" y="240" width="8" height="8"/>
	</g>
</g>
</svg>
